<svg width="96" height="51" viewBox="0 0 96 51" fill="none" xmlns="http://www.w3.org/2000/svg">
<g clip-path="url(#clip0)">
<path d="M15.7382 15.3147C15.7038 14.4925 15.5335 13.6824 15.2348 12.9195C15.1243 12.641 14.9952 12.3708 14.8484 12.1109L14.7534 11.9284L14.2157 10.9019L13.8845 10.2666C13.8095 10.1217 13.7421 9.97915 13.6792 9.83772C13.4696 9.38117 13.3211 8.89733 13.2376 8.39948C13.1433 7.80335 13.3642 7.03461 13.9 6.09327C14.1991 5.59689 14.5716 5.152 15.004 4.77479C15.4854 4.3353 15.9778 4.11593 16.4813 4.11669C16.9435 4.11669 17.2011 4.26876 17.2541 4.57291C17.3071 4.87706 17.2088 5.30629 16.9593 5.8606C16.7142 6.41491 16.3874 7.06845 15.9789 7.82122L20.9715 7.22471C21.3847 6.46066 21.7487 5.66929 22.0612 4.85577C22.3636 4.10927 22.5305 3.31168 22.5536 2.5028C22.5685 2.15968 22.5053 1.81774 22.3692 1.50439C22.2331 1.19104 22.0278 0.91501 21.7697 0.698442C21.2368 0.237657 20.3168 0.0072644 19.0096 0.0072644C16.9016 0.00628328 14.8331 0.597674 13.0256 1.7181C11.1472 2.85866 9.59196 4.506 8.35983 6.66013C7.47953 8.18315 7.06072 9.46248 7.10341 10.4981C7.13125 11.4015 7.35778 12.2865 7.76585 13.086C7.79787 13.1488 7.82988 13.2126 7.86521 13.2742L8.71423 14.8562L8.72417 14.8756L8.89199 15.1892C9.28067 15.8549 9.52828 16.5982 9.61846 17.37C9.69206 18.0923 9.43113 18.9762 8.83568 20.0218C8.56807 20.4836 8.24084 20.9057 7.86301 21.2764C7.66985 21.4739 7.44002 21.6291 7.18732 21.7326C6.94076 21.8303 6.67855 21.8791 6.41448 21.8763C5.97286 21.8763 5.67844 21.7299 5.53124 21.4372C5.38403 21.1444 5.41568 20.6631 5.62619 19.9932C5.83596 19.3234 6.24078 18.4447 6.84065 17.3574L5.9574 17.484L3.38495 17.8479L1.78738 18.076C0.771648 19.9594 0.189073 21.4919 0.0396577 22.6735C-0.109758 23.8552 0.170305 24.7296 0.879845 25.2968C1.24621 25.5737 1.6608 25.7751 2.10093 25.8899C2.77693 26.0649 3.47199 26.1488 4.16883 26.1397H4.25384C5.41696 26.1383 6.57045 25.922 7.65986 25.501C7.82473 25.4371 7.98923 25.3694 8.15337 25.298C8.71209 25.0513 9.25331 24.7643 9.77302 24.4391C10.4539 24.0157 11.0974 23.5314 11.6963 22.9918C12.7376 22.0617 13.6258 20.9631 14.3262 19.7389C15.3272 17.9817 15.7979 16.5069 15.7382 15.3147Z" fill="#3E3E3E"/>
<path d="M20.0121 21.9661L24.1203 17.3765L25.464 15.8755L26.7789 14.4065L28.2197 12.796L36.5255 3.51531L38.3152 0.345703H27.3056L25.1515 4.14262H30.8573L24.9572 10.7316L23.3309 12.5474L22.5316 13.4404L21.1847 14.9448L14.5316 22.3744L12.6083 25.763H24.0287L26.1717 21.9661H20.0121Z" fill="#3E3E3E"/>
<path d="M54.9182 24.9166C56.4179 24.3499 57.7759 23.4438 58.8928 22.2648C60.0455 21.0611 61.1495 19.5077 62.205 17.6045L63.4195 15.4249L64.5611 13.3822L65.8539 11.0543C65.589 11.0132 65.3229 10.9824 65.0579 10.9642C63.2848 10.8399 61.5569 11.1535 59.9053 11.7409L58.7725 13.7768L56.1515 18.4839C55.7943 19.1374 55.3972 19.7668 54.9624 20.3681C54.6187 20.8475 54.169 21.235 53.6508 21.4984C53.1473 21.7493 52.4809 21.8747 51.6513 21.8747H50.8012L55.0375 14.2798L55.0585 14.241L56.5743 11.5242L56.9895 10.7805L60.6196 4.27025H61.4344C62.2396 4.27025 62.7651 4.3748 63.011 4.5839C63.2568 4.793 63.3069 5.12795 63.1611 5.58873C62.9368 6.22396 62.6532 6.83513 62.3143 7.41363L61.2953 9.24536C63.1379 8.84274 65.0325 8.77203 66.8951 9.17921L67.3367 8.38652C68.3826 6.5046 68.992 4.97245 69.165 3.79007C69.338 2.6077 68.9854 1.73935 68.1073 1.18504C67.2292 0.630733 65.7248 0.353577 63.5939 0.353577H57.4112L49.6177 14.2764L47.9053 17.3387L46.3994 20.0316L45.3008 21.9968L43.1943 25.7606H49.4819C51.6083 25.7629 53.4204 25.4816 54.9182 24.9166Z" fill="#3E3E3E"/>
<path d="M58.5084 28.0406L58.8397 26.9822H54.2214L53.6694 28.7272L53.432 29.4823C55.0207 29.0146 56.6879 28.7307 58.3704 28.4752L58.5084 28.0406Z" fill="#3E3E3E"/>
<path d="M67.4027 26.9833H62.9258L62.3009 27.8502L60.8358 29.8804L60.615 30.1837L55.7107 36.9872L57.698 30.6308C55.9823 30.9171 54.2578 31.2889 52.6613 31.9334L49.0179 43.4997L48.7971 44.1955L48.297 45.7854L48.17 46.1869L46.7568 50.6784H51.4292L52.3975 47.5795L52.6812 46.6671L53.0191 45.587L53.411 44.3323L54.3274 41.4011L55.48 40.0553L55.5661 44.1339L55.5948 45.5026L55.618 46.4869L55.6412 47.5772L55.7074 50.6761H60.4085L60.223 46.4116L60.1789 45.3942L60.1303 44.2901L60.074 42.9842L59.841 37.6293L65.9133 29.0751L67.4027 26.9833Z" fill="#3E3E3E"/>
<path d="M78.5018 26.9833H78.0072L77.5821 28.3874L76.8468 30.8156L76.6105 31.5946L73.8051 40.8582L73.6141 41.4924C75.0816 41.6394 76.5306 41.9409 77.9387 42.3923L79.9878 35.574L80.2087 34.8269L80.7673 32.9656L80.7949 32.8766L82.5691 26.9833H78.5018Z" fill="#3E3E3E"/>
<path d="M72.8942 43.8636C72.717 44.4521 72.505 45.0287 72.2594 45.5904C72.0409 46.1165 71.7116 46.5856 71.2955 46.9636C70.8959 47.3149 70.3851 47.4906 69.7631 47.4906C69.1603 47.4906 68.7694 47.3149 68.5807 46.9636C68.3919 46.6123 68.3477 46.155 68.436 45.5881C68.5277 45.0033 68.6606 44.4262 68.8335 43.8613L68.8898 43.6925L69.1415 42.9329L69.6163 41.5038L69.9353 40.54L74.4322 26.9833H69.4186L69.1868 27.7384L64.9914 41.4034L64.595 42.6945L64.4415 43.1929C64.3488 43.4963 64.2682 43.7883 64.1931 44.0746C64.107 44.4031 64.033 44.719 63.9723 45.0258C63.8003 45.8116 63.7177 46.6154 63.7261 47.421C63.7559 48.5798 64.1567 49.474 64.9306 50.0831C65.7046 50.6921 66.9621 51.0035 68.6999 51.0035C70.4377 51.0035 71.8785 50.6978 73.0278 50.0831C74.1781 49.4653 75.1521 48.5476 75.8531 47.421C76.3253 46.6643 76.7292 45.8645 77.0598 45.0315C77.1537 44.8034 77.2431 44.5605 77.3314 44.3164C75.9242 43.8787 74.4726 43.6108 73.0057 43.518L72.8942 43.8636Z" fill="#3E3E3E"/>
<path d="M81.5755 48.2616L80.8546 50.6784H85.5545L86.0237 49.093L86.2114 48.4566C84.785 48.0004 83.4347 47.2773 82.0889 46.537L81.5755 48.2616Z" fill="#3E3E3E"/>
<path d="M84.4152 26.9833L83.3365 30.5818H86.8408L85.6484 34.5829L85.0754 36.5047L84.9937 36.7819L84.2971 39.1189L82.6907 44.5137C83.9614 45.2197 85.3625 46.009 86.7956 46.4789L87.8566 42.8838L88.7199 39.9595L89.325 37.9133L89.8969 35.9744L91.4999 30.5807H94.9479L96.0001 26.9833H84.4152Z" fill="#3E3E3E"/>
<path d="M28.6105 21.6147L25.5191 25.764H30.6519L31.9767 23.93C31.8663 23.8707 31.7493 23.8091 31.6367 23.7475C30.5643 23.1382 29.5509 22.424 28.6105 21.6147V21.6147Z" fill="#3E3E3E"/>
<path d="M50.6211 0.345581H44.4671L38.3197 8.59066L36.6813 10.7874L33.2222 15.4294L31.787 17.3479L31.2979 18.0037L29.803 20.0099C30.8463 20.895 31.9504 21.6842 33.167 22.2659L33.6694 21.5691L34.514 20.3977H38.1231L37.167 22.737L36.9871 23.1772L36.2396 25.0078L36.1513 25.2245L35.9305 25.764H40.9418L41.5336 24.2094L41.7146 23.735L42.6376 21.309L43.1477 19.9689L50.6211 0.345581ZM42.1629 10.849L41.0445 13.4472L39.8797 16.148L39.4988 17.0399H36.891L37.1317 16.6977L40.2805 12.156L41.6053 10.2513L43.7704 7.12847L42.1629 10.849Z" fill="#3E3E3E"/>
<path d="M69.3493 12.3112L66.8795 15.6633L65.4034 17.6695L59.4415 25.7674H64.5753L68.3932 20.4011H72.0023L70.3871 24.4455L69.8605 25.764H74.8729L84.3126 0.345581H78.1597L70.5505 10.679C71.6207 11.36 72.5553 12.2457 73.304 13.2886L77.5204 7.12391L74.2336 14.9265L73.3438 17.0399H70.7437L72.1017 15.0542C71.4236 13.9141 70.4766 12.9703 69.3493 12.3112Z" fill="#3E3E3E"/>
<path d="M85.9299 16.6614C85.5623 16.6138 85.1898 16.6941 84.8712 16.8895L82.4798 18.3608L82.3009 18.0985C82.2761 18.0803 82.2463 18.0707 82.2159 18.0711C82.1836 18.071 82.1521 18.081 82.1254 18.0996L79.4006 20.05L78.7315 20.5301C78.1536 21.0331 77.6591 21.6303 77.2675 22.298C77.0854 22.5968 76.9164 22.9082 76.7597 23.2275C76.4188 23.9212 76.1668 24.6577 76.01 25.4186L76.1204 25.4619L77.9686 26.2204L78.1574 26.2979C78.193 26.0412 78.2446 25.7871 78.312 25.5372L78.5041 25.8223C78.5158 25.8402 78.5309 25.8555 78.5484 25.8673C78.5659 25.879 78.5855 25.8871 78.6061 25.8909C78.6267 25.8947 78.6478 25.8943 78.6682 25.8895C78.6886 25.8848 78.7079 25.8759 78.7249 25.8634L83.2791 22.6025C83.4623 22.4714 83.6187 22.3043 83.7394 22.1107C83.8601 21.9172 83.9427 21.7009 83.9825 21.4744C84.0223 21.2478 84.0184 21.0154 83.9713 20.7904C83.9241 20.5653 83.8344 20.3521 83.7075 20.1629L83.4028 19.7066L83.0108 19.1364L85.0743 17.8692C85.393 17.674 85.7654 17.5937 86.1331 17.6411L86.8982 17.738L87.0086 16.8039L85.9299 16.6614ZM82.3793 20.1401C82.5173 20.0659 82.6388 20.0055 82.7348 19.961L82.8794 20.1766C82.9214 20.2404 82.96 20.3054 82.9954 20.3716C82.7381 20.7252 81.5104 22.3105 80.1524 22.46C80.4715 21.3194 81.6517 20.5267 82.3793 20.1401ZM83.1897 20.8803C83.2637 21.1752 83.2458 21.4867 83.1386 21.7705C83.0313 22.0543 82.8402 22.296 82.5924 22.4611L80.413 24.018C80.3936 24.0316 80.3716 24.0406 80.3484 24.0445C80.3253 24.0483 80.3016 24.0469 80.2791 24.0402C80.2566 24.0336 80.2357 24.0219 80.218 24.0061C80.2003 23.9902 80.1862 23.9705 80.1767 23.9484C80.0398 23.6315 79.9968 23.2799 80.0531 22.9378C81.4596 22.8694 82.694 21.5087 83.1897 20.8746V20.8803Z" fill="#3E3E3E"/>
<path d="M46.399 20.0316L47.9049 17.3387C47.1453 17.9763 46.3813 18.6082 45.6041 19.2184C44.6577 19.9754 43.6686 20.6735 42.6419 21.309L41.7189 23.735L41.5378 24.2095C42.1703 23.9283 42.7863 23.6092 43.3827 23.2537C44.0452 22.8625 44.6778 22.4405 45.3005 21.9991L46.399 20.0316Z" fill="url(#paint0_linear)"/>
<path d="M14.2156 10.9015L14.7588 11.9348L14.8538 12.1173C15.0006 12.3773 15.1297 12.6475 15.2402 12.926C17.3732 12.9807 19.3793 13.7335 21.19 14.9493L22.5369 13.4449C20.3432 11.9097 17.9076 10.8775 15.1397 10.8707C14.8262 10.8669 14.5181 10.8772 14.2156 10.9015Z" fill="url(#paint1_linear)"/>
<path d="M73.3038 13.2886C72.555 12.2457 71.6205 11.36 70.5503 10.679C69.7075 10.1397 68.7995 9.71786 67.8497 9.42443C67.5329 9.32634 67.2138 9.24423 66.8947 9.17351C65.0322 8.76633 63.1409 8.83705 61.295 9.23966C59.8057 9.57531 58.3603 10.0926 56.9891 10.7806L56.574 11.5242L55.0581 14.241L55.0372 14.2798C56.5564 13.2533 58.1881 12.3534 59.895 11.7432C61.5511 11.1558 63.2745 10.8421 65.0476 10.9665C65.3126 10.9847 65.5787 11.0155 65.8437 11.0566C67.0765 11.2426 68.2641 11.6683 69.3435 12.3112C70.4688 12.9711 71.4138 13.9148 72.0904 15.0542C72.3776 15.5514 72.6028 16.0841 72.7606 16.6396C72.7981 16.7719 72.8301 16.9053 72.8599 17.0399H73.338L74.2279 14.9265C73.975 14.3492 73.6654 13.8004 73.3038 13.2886V13.2886Z" fill="url(#paint2_linear)"/>
<path d="M77.5821 28.384L76.8468 30.8122L76.6105 31.5912C76.1752 30.8813 75.8705 30.0944 75.7118 29.2702C75.4623 27.9597 75.5694 26.6207 76.1203 25.4619L77.9685 26.2203C77.6232 26.8818 77.488 27.6387 77.5821 28.384Z" fill="url(#paint3_linear)"/>
<path d="M85.6482 34.5828C84.0373 34.1654 82.2719 33.6989 80.7903 32.872L80.7627 32.961L80.204 34.8224C81.7343 35.6207 83.4058 36.0564 85.0696 36.5001L85.6482 34.5828Z" fill="url(#paint4_linear)"/>
<path d="M33.1714 22.266C31.9569 21.6843 30.8528 20.8973 29.8073 20.0099C28.2859 18.72 26.8926 17.227 25.4639 15.8754L24.1203 17.3775C25.6196 18.7884 27.0461 20.2917 28.6105 21.6147C29.5495 22.4238 30.5614 23.138 31.6323 23.7475C31.7427 23.8091 31.8531 23.8707 31.9723 23.93C33.2751 24.6306 34.6946 25.0698 36.1556 25.2246L36.2439 25.0079L36.9914 23.1773C36.128 23.1886 35.2686 23.0553 34.4465 22.7826C34.0114 22.6382 33.5855 22.4656 33.1714 22.266Z" fill="url(#paint5_linear)"/>
<path d="M60.8358 29.8803L62.3008 27.8489C61.0025 28.0907 59.6831 28.2755 58.3726 28.4751C56.69 28.7306 55.0229 29.0146 53.4342 29.4822C51.0682 30.1791 48.8766 31.2854 47.0682 33.3259C44.6779 36.0256 43.4248 40.0267 45.3514 43.3788C46.0404 44.5525 47.0138 45.5204 48.1755 46.1868L48.3025 45.7853L48.8026 44.1954C48.5543 44.0223 48.3179 43.8318 48.0949 43.6251C46.9909 42.5918 46.3461 41.1695 46.377 39.6195C46.4102 37.9588 47.1786 36.3461 48.2054 35.0972C49.4353 33.5916 50.9809 32.6119 52.6624 31.9333C54.2589 31.2889 55.9834 30.917 57.6991 30.6308C58.0767 30.5676 58.4532 30.508 58.8286 30.4517C59.4237 30.3627 60.021 30.2749 60.6172 30.1837L60.8358 29.8803Z" fill="url(#paint6_linear)"/>
<path d="M60.1822 45.3964L60.2263 46.4138C61.4817 45.9735 62.7237 45.4762 63.9669 45.0223C64.0287 44.7155 64.1027 44.3995 64.1877 44.0711C64.2628 43.7848 64.3434 43.4928 64.4361 43.1894L64.5896 42.691C63.0969 43.1928 61.6252 43.7711 60.1325 44.2878L60.1822 45.3964Z" fill="url(#paint7_linear)"/>
<path d="M69.1847 27.7349L69.4187 26.9833H70.4223C70.9498 26.6203 71.4479 26.2137 71.9117 25.7675H69.8603L70.3881 24.4456C69.8853 24.8904 69.3439 25.2864 68.7706 25.6283C67.822 26.1893 66.8178 26.6436 65.7753 26.9833H67.4038L65.9178 29.0774C67.0468 28.7419 68.1411 28.2923 69.1847 27.7349V27.7349Z" fill="url(#paint8_linear)"/>
<path d="M55.6001 45.5014C54.7465 45.6192 53.8838 45.6497 53.0244 45.5926L52.6865 46.6728L52.4028 47.5852C52.8498 47.6426 53.2994 47.6765 53.7497 47.6867C54.3828 47.6988 55.0158 47.6649 55.6443 47.5852L55.6178 46.4868L55.6001 45.5014Z" fill="url(#paint9_linear)"/>
<path d="M95.3806 42.3444C94.9191 39.1371 92.5719 37.1902 89.899 35.9778L89.327 37.9167C89.5147 38.0034 89.6987 38.095 89.8791 38.1916C91.4524 39.0254 92.7982 40.3028 93.3017 42.1049C93.7234 43.6184 93.3017 45.2106 91.9768 46.0763C90.3207 47.1587 88.531 47.0549 86.7877 46.4823C85.3524 46.0124 83.9536 45.2277 82.6828 44.5171C82.4344 44.3791 82.1904 44.2445 81.9519 44.1157C80.6639 43.4171 79.3169 42.8414 77.9276 42.3957C76.5232 41.9439 75.0779 41.6413 73.6141 41.4924C72.2852 41.3595 70.9468 41.363 69.6185 41.5026V41.5026L69.1438 42.9318L68.892 43.6914C70.2533 43.486 71.6315 43.426 73.0046 43.5123C74.4715 43.6051 75.9231 43.873 77.3303 44.3107C77.4739 44.3552 77.6163 44.4008 77.7598 44.4498C79.2569 44.9563 80.6723 45.7524 82.0933 46.5336C83.4391 47.2739 84.7894 47.9993 86.2158 48.4532C87.0788 48.7362 87.9759 48.8928 88.881 48.9185C90.5813 48.955 92.3268 48.4737 93.6505 47.34C95.0759 46.1173 95.65 44.2115 95.3806 42.3444Z" fill="url(#paint10_linear)"/>
<path d="M7.76253 13.0856C7.68083 13.1666 5.36783 15.1614 5.43739 16.9395C5.43739 16.9395 7.22596 15.4568 8.72306 14.8728L8.50888 14.4736L7.76253 13.0856Z" fill="url(#paint11_linear)"/>
</g>
<defs>
<linearGradient id="paint0_linear" x1="44.7214" y1="17.3387" x2="44.7214" y2="24.2095" gradientUnits="userSpaceOnUse">
<stop stop-color="#55FFC2"/>
<stop offset="1" stop-color="#5CCAC3"/>
</linearGradient>
<linearGradient id="paint1_linear" x1="18.3763" y1="10.8699" x2="18.3763" y2="14.9493" gradientUnits="userSpaceOnUse">
<stop stop-color="#55FFC2"/>
<stop offset="1" stop-color="#5CCAC3"/>
</linearGradient>
<linearGradient id="paint2_linear" x1="64.6325" y1="8.90076" x2="64.6325" y2="17.0399" gradientUnits="userSpaceOnUse">
<stop stop-color="#55FFC2"/>
<stop offset="1" stop-color="#5CCAC3"/>
</linearGradient>
<linearGradient id="paint3_linear" x1="76.7765" y1="25.4619" x2="76.7765" y2="31.5912" gradientUnits="userSpaceOnUse">
<stop stop-color="#55FFC2"/>
<stop offset="1" stop-color="#5CCAC3"/>
</linearGradient>
<linearGradient id="paint4_linear" x1="82.9261" y1="32.872" x2="82.9261" y2="36.5001" gradientUnits="userSpaceOnUse">
<stop stop-color="#55FFC2"/>
<stop offset="1" stop-color="#5CCAC3"/>
</linearGradient>
<linearGradient id="paint5_linear" x1="30.5558" y1="15.8754" x2="30.5558" y2="25.2246" gradientUnits="userSpaceOnUse">
<stop stop-color="#55FFC2"/>
<stop offset="1" stop-color="#5CCAC3"/>
</linearGradient>
<linearGradient id="paint6_linear" x1="53.3548" y1="27.8489" x2="53.3548" y2="46.1868" gradientUnits="userSpaceOnUse">
<stop stop-color="#55FFC2"/>
<stop offset="1" stop-color="#5CCAC3"/>
</linearGradient>
<linearGradient id="paint7_linear" x1="62.361" y1="42.691" x2="62.361" y2="46.4138" gradientUnits="userSpaceOnUse">
<stop stop-color="#55FFC2"/>
<stop offset="1" stop-color="#5CCAC3"/>
</linearGradient>
<linearGradient id="paint8_linear" x1="68.8435" y1="24.4456" x2="68.8435" y2="29.0774" gradientUnits="userSpaceOnUse">
<stop stop-color="#55FFC2"/>
<stop offset="1" stop-color="#5CCAC3"/>
</linearGradient>
<linearGradient id="paint9_linear" x1="54.0235" y1="45.5014" x2="54.0235" y2="47.6891" gradientUnits="userSpaceOnUse">
<stop stop-color="#55FFC2"/>
<stop offset="1" stop-color="#5CCAC3"/>
</linearGradient>
<linearGradient id="paint10_linear" x1="82.1686" y1="35.9778" x2="82.1686" y2="48.9205" gradientUnits="userSpaceOnUse">
<stop stop-color="#55FFC2"/>
<stop offset="1" stop-color="#5CCAC3"/>
</linearGradient>
<linearGradient id="paint11_linear" x1="7.07946" y1="13.0856" x2="7.07946" y2="16.9395" gradientUnits="userSpaceOnUse">
<stop stop-color="#55FFC2"/>
<stop offset="1" stop-color="#5CCAC3"/>
</linearGradient>
<clipPath id="clip0">
<rect width="96" height="51" fill="white"/>
</clipPath>
</defs>
</svg>
