<?xml version="1.0"?>
<svg xmlns="http://www.w3.org/2000/svg" xmlns:xlink="http://www.w3.org/1999/xlink" xmlns:svgjs="http://svgjs.com/svgjs" version="1.1" width="512" height="512" x="0" y="0" viewBox="0 0 512 512" style="enable-background:new 0 0 512 512" xml:space="preserve" class=""><g transform="matrix(1,0,0,1,0,0)">
<path xmlns="http://www.w3.org/2000/svg" style="" d="M255,512c-68.024,0-132.082-26.901-180.373-75.749C26.503,387.573,0,323.204,0,255  c0-68.113,26.524-132.149,74.688-180.312C122.851,26.525,186.887,0,255,0c68.204,0,132.573,26.503,181.251,74.627  C485.099,122.919,512,186.976,512,255c0,34.416-6.855,67.932-20.376,99.618c-13.03,30.536-31.64,58.022-55.312,81.694  s-51.157,42.281-81.694,55.311C322.932,505.144,289.416,512,255,512z M255,30C130.935,30,30,130.935,30,255  c0,125.168,100.935,227,225,227c125.168,0,227-101.832,227-227C482,130.935,380.168,30,255,30z" fill="#00bfa5" data-original="#fd003a" class=""/>
<path xmlns="http://www.w3.org/2000/svg" style="" d="M317,330c-3.839,0-7.678-1.464-10.606-4.393l-60-60c-5.858-5.858-5.858-15.355,0-21.213l60-60  c5.857-5.858,15.355-5.858,21.213,0s5.858,15.355,0,21.213L278.213,255l49.393,49.393c5.858,5.858,5.858,15.355,0,21.213  C324.678,328.536,320.839,330,317,330z" fill="#000000" data-original="#1689fc" class=""/>
<path xmlns="http://www.w3.org/2000/svg" style="" d="M394.453,117.803c-0.043-0.044-0.078-0.091-0.121-0.134c-0.036-0.036-0.076-0.066-0.113-0.102  c-0.159-0.157-0.312-0.319-0.471-0.476C356.367,80.275,307.092,60,255,60c-53.129,0-101.355,21.367-136.56,55.947  c-0.457,0.361-0.903,0.744-1.326,1.167c-0.422,0.422-0.805,0.868-1.167,1.325C81.367,153.645,60,201.871,60,255  c0,52.092,20.275,101.367,57.091,138.747c0.158,0.16,0.32,0.314,0.478,0.474c0.035,0.036,0.064,0.075,0.1,0.11  c0.042,0.042,0.089,0.077,0.132,0.119C154.714,431.565,203.394,452,255,452c52.012,0,101.315-20.659,138.828-58.172  C431.341,356.316,452,307.012,452,255C452,203.395,431.566,154.716,394.453,117.803z M407,270h14.284  c-3.218,34.269-17.311,65.923-38.697,91.374l-8.915-8.915c-5.857-5.858-15.355-5.858-21.213,0s-5.858,15.355,0,21.213l8.914,8.914  c-25.451,21.386-57.105,35.479-91.374,38.697V407c0-8.284-6.716-15-15-15s-15,6.716-15,15v14.303  c-34.136-3.129-65.304-16.816-90.277-37.812l9.818-9.818c5.858-5.858,5.858-15.355,0-21.213c-5.857-5.858-15.355-5.858-21.213,0  l-9.74,9.74c-21.083-25.429-34.828-57.283-37.914-92.2H105c8.284,0,15-6.716,15-15s-6.716-15-15-15H90.689  c3.102-34.25,16.707-65.512,37.571-90.527l10.068,10.068c2.929,2.929,6.768,4.393,10.606,4.393s7.678-1.464,10.606-4.393  c5.858-5.858,5.858-15.355,0-21.213l-10.068-10.068C174.488,107.396,205.75,93.791,240,90.689V105c0,8.284,6.716,15,15,15  s15-6.716,15-15V90.673c34.917,3.086,66.771,16.831,92.199,37.915l-9.739,9.739c-5.858,5.858-5.858,15.355,0,21.213  c2.929,2.929,6.768,4.393,10.606,4.393s7.678-1.464,10.606-4.393l9.818-9.818c20.997,24.973,34.684,56.142,37.812,90.277H407  c-8.284,0-15,6.716-15,15S398.716,270,407,270z" fill="#cccccc" data-original="#81c8ee" class=""/>
<g xmlns="http://www.w3.org/2000/svg">
</g>
<g xmlns="http://www.w3.org/2000/svg">
</g>
<g xmlns="http://www.w3.org/2000/svg">
</g>
<g xmlns="http://www.w3.org/2000/svg">
</g>
<g xmlns="http://www.w3.org/2000/svg">
</g>
<g xmlns="http://www.w3.org/2000/svg">
</g>
<g xmlns="http://www.w3.org/2000/svg">
</g>
<g xmlns="http://www.w3.org/2000/svg">
</g>
<g xmlns="http://www.w3.org/2000/svg">
</g>
<g xmlns="http://www.w3.org/2000/svg">
</g>
<g xmlns="http://www.w3.org/2000/svg">
</g>
<g xmlns="http://www.w3.org/2000/svg">
</g>
<g xmlns="http://www.w3.org/2000/svg">
</g>
<g xmlns="http://www.w3.org/2000/svg">
</g>
<g xmlns="http://www.w3.org/2000/svg">
</g>
</g></svg>
